<?xml version="1.0" encoding="utf-8"?>
<!-- Generator: Adobe Illustrator 26.5.0, SVG Export Plug-In . SVG Version: 6.00 Build 0)  -->
<svg version="1.1" id="Capa_1" xmlns="http://www.w3.org/2000/svg" xmlns:xlink="http://www.w3.org/1999/xlink" x="0px" y="0px"
	 viewBox="0 0 638.2 112.2" style="enable-background:new 0 0 638.2 112.2;" xml:space="preserve">
<style type="text/css">
	.st0{fill:#FFFFFF;}
</style>
<g>
	<path class="st0" d="M170.4,71.8h21.1v9.3h-33.2V30.9h12.1V71.8z"/>
	<path class="st0" d="M239.9,71.8h-16.6l-2.9,9.4h-13L226,31h11.4l18.5,50.2h-13L239.9,71.8z M226.2,62.4h10.8L231.6,45L226.2,62.4z
		"/>
	<path class="st0" d="M315.7,81.1h-12l-17.8-31.3v31.3h-12.1V30.9h12.1l17.8,31.3V30.9h12.1L315.7,81.1L315.7,81.1z"/>
	<path class="st0" d="M337.5,81.1V30.9h16.2c4.5,0,8.4,1,12,3c3.5,2.1,6.3,4.8,8.3,8.5c2,3.6,3,7.8,3,12.3V57
		c0,4.6-0.9,8.8-2.9,12.4c-2,3.6-4.7,6.5-8.2,8.6c-3.5,2.1-7.5,3.1-11.8,3.2H337.5z M349.6,40.3v31.6h4.2c3.4,0,6.2-1.2,8-3.7
		c1.9-2.5,2.8-6.2,2.8-11V55c0-4.8-0.9-8.5-2.8-11c-1.9-2.4-4.6-3.7-8.1-3.7L349.6,40.3L349.6,40.3z"/>
	<path class="st0" d="M413.2,30.9l11.2,35l11.2-35h15.9v50.2h-12.1V69.4l1.2-24l-12.1,35.8h-8l-12.2-35.8l1.2,24v11.7h-12.1V30.9
		H413.2z"/>
	<path class="st0" d="M502,71.8h-16.6l-2.9,9.4h-13L488.1,31h11.4L518,81.2h-13L502,71.8z M488.3,62.4h10.8L493.7,45L488.3,62.4z"/>
	<path class="st0" d="M554.4,63.4h-6.5v17.8h-12.1V31h19.8c6,0,10.6,1.3,14,4c3.4,2.6,5,6.3,5,11.2c0,3.4-0.7,6.4-2.1,8.7
		c-1.4,2.3-3.6,4.2-6.6,5.6l10.5,20.3v0.6h-13L554.4,63.4z M547.9,54.1h7.6c2.3,0,4-0.6,5.2-1.8c1.1-1.2,1.8-2.9,1.8-5
		c0-2.1-0.6-3.9-1.8-5.1c-1.2-1.2-2.9-1.9-5.2-1.9h-7.6V54.1z"/>
	<path class="st0" d="M613.1,62.5l-4.9,5.5v13.2h-12.1V31h12.1v22.2l4.2-6.4L623.2,31h15l-17,22.3l17,28.1h-14.4L613.1,62.5z"/>
</g>
<g>
	<path class="st0" d="M71.9,75.2c3.2-6.4,5.8-12.7,5.8-16.5c0-10.4-8.3-18.7-18.7-18.7s-18.7,8.3-18.7,18.7c0,3.8,2.6,10.1,5.8,16.5
		C19.7,77.1,0,84.6,0,93.5c0,10.4,26.4,18.7,59,18.7s59-8.3,59-18.7C118,84.6,98.3,77.1,71.9,75.2z M59,106.5
		c-26.3,0-47.6-6.8-47.6-15.1c0-7,15-12.9,35.5-14.6C52.2,87.1,59,97.3,59,97.3s6.8-10.1,12.2-20.6c20.4,1.7,35.5,7.6,35.5,14.6
		C106.7,99.7,85.3,106.5,59,106.5z"/>
	<path class="st0" d="M59,0C48.5,0,39.9,8.6,39.9,19.1S48.5,38.1,59,38.1s19.1-8.6,19.1-19.1S69.6,0,59,0z M70.7,13.6L56.3,29.8l0,0
		l0,0l-0.1,0.1l-0.1,0.1c-0.1,0-0.1,0.1-0.1,0.1L56,30.1c-0.1,0-0.1,0.1-0.1,0.1h-0.1c-0.1,0-0.1,0-0.3,0l0,0l0,0
		c-0.1,0-0.1,0-0.3,0h-0.1c-0.1,0-0.1,0-0.1-0.1c0,0-0.1,0-0.1-0.1c-0.1,0-0.1-0.1-0.1-0.1l-0.1-0.1l-0.1-0.1l0,0l0,0l-6.9-6.6
		c-0.6-0.5-0.6-1.4-0.1-1.9s1.4-0.6,1.9-0.1l5.8,5.6l13.5-15.2c0.5-0.6,1.4-0.6,1.9-0.1C71.1,12.2,71.2,13,70.7,13.6z"/>
</g>
</svg>
